<svg xmlns:dc="http://purl.org/dc/elements/1.1/" xmlns:cc="http://creativecommons.org/ns#" xmlns:rdf="http://www.w3.org/1999/02/22-rdf-syntax-ns#" xmlns:svg="http://www.w3.org/2000/svg" xmlns="http://www.w3.org/2000/svg" xml:space="preserve" preserveAspectRatio="none" height="96" width="640" version="1.1"><rect id="backgroundrect" width="100%" height="100%" x="0" y="0" fill="none" stroke="none"/><metadata id="metadata9"><rdf:RDF><cc:Work rdf:about=""><dc:format>image/svg+xml</dc:format><dc:type rdf:resource="http://purl.org/dc/dcmitype/StillImage"/><dc:title/></cc:Work></rdf:RDF></metadata><defs id="defs7"/><g class="currentLayer"><title>Layer 1</title><path id="path3" d="m 0,10.866044 c 0,0 90.140845,-18.542056 260.20657,6.778816 C 441.89045,44.560748 520.81377,0 640,0 l 0,76.461059 c 0,0 -100.45696,1.99377 -136.5133,7.277261 -36.05634,5.28349 -100.65728,7.67601 -169.76526,7.27726 C 264.61346,90.71651 227.35524,83.53894 173.27074,80.34891 65.101721,74.068536 0,96 0,96 L 0,10.866044 Z" style="fill:#f9eb2d" class=""/><rect fill="#ffffff" stroke-dashoffset="" fill-rule="nonzero" id="svg_1" x="-7" y="58" width="645.5656739473343" height="38.777776358790135" style="color: rgb(0, 0, 0);" class="selected" fill-opacity="1"/><path d="m-0.063018798828125,11.088269248813631 c0,0 90.140845,-18.542056 260.20657,6.778816 C441.82743120117186,44.78297324881362 520.7507512011719,0.22222524881363082 639.9369812011719,0.22222524881363082 l0,76.461059 c0,0 -100.45696,1.99377 -136.5133,7.277261 c-36.05634,5.2834900000000005 -100.65728,7.67601 -169.76526,7.27726 C264.55044120117185,90.93873524881363 227.29222120117186,83.76116524881363 173.20772120117186,80.57113524881362 C65.03870220117187,74.29076124881362 -0.063018798828125,96.22222524881363 -0.063018798828125,96.22222524881363 L-0.063018798828125,11.088269248813631 z" style="fill:#f9eb2d" class="" id="svg_4"/></g></svg>